<svg width="115" height="50" viewBox="0 0 115 50" fill="none" xmlns="http://www.w3.org/2000/svg">
<path d="M18.24 11.64C14.72 11.64 11.792 12.904 9.456 15.432C7.12 17.96 5.952 21 5.952 24.552C5.952 26.248 6.352 27.672 7.152 28.824C7.952 29.944 9.12 30.504 10.656 30.504C14.944 30.504 17.584 26.472 18.576 18.408L19.392 11.784C19.168 11.688 18.784 11.64 18.24 11.64ZM17.232 29.688C16.176 31.128 15.056 32.152 13.872 32.76C12.688 33.368 11.136 33.672 9.216 33.672C7.328 33.672 5.648 32.936 4.176 31.464C2.736 29.992 2.016 27.832 2.016 24.984C2.016 21.912 2.752 19.08 4.224 16.488C5.088 14.984 6.16 13.672 7.44 12.552C8.752 11.4 10.464 10.472 12.576 9.768C14.688 9.032 16.96 8.664 19.392 8.664C21.856 8.664 23.088 9.368 23.088 10.776L19.728 37.368C19.248 41.208 18.176 44.184 16.512 46.296C14.88 48.408 12.256 49.464 8.64 49.464C7.264 49.464 5.888 49.288 4.512 48.936C3.136 48.584 2.064 48.184 1.296 47.736C0.528 47.288 0.144 46.84 0.144 46.392C0.144 45.976 0.272 45.448 0.528 44.808C0.816 44.2 1.168 43.896 1.584 43.896C1.616 43.896 1.744 43.976 1.968 44.136C2.224 44.328 2.56 44.536 2.976 44.76C3.392 45.016 3.872 45.256 4.416 45.48C5.696 46.088 7.2 46.392 8.928 46.392C10.688 46.392 12.112 45.928 13.2 45C14.288 44.072 15.136 42.44 15.744 40.104C16.352 37.8 16.848 34.328 17.232 29.688ZM40.3879 8.664C43.3639 8.664 45.6679 9.704 47.2999 11.784C48.9639 13.864 49.7959 16.408 49.7959 19.416C49.7959 23.384 48.6119 26.76 46.2439 29.544C43.9079 32.296 40.8679 33.672 37.1239 33.672C34.1479 33.672 31.8439 32.664 30.2119 30.648C28.6119 28.6 27.7799 26.072 27.7159 23.064C27.7159 19.576 28.6919 16.376 30.6439 13.464C31.6359 12.024 32.9639 10.872 34.6279 10.008C36.3239 9.112 38.2439 8.664 40.3879 8.664ZM35.2999 13.416C33.9559 14.568 32.9959 15.96 32.4199 17.592C31.8439 19.192 31.5559 21.048 31.5559 23.16C31.5559 25.24 32.0519 27.016 33.0439 28.488C34.0359 29.96 35.6359 30.696 37.8439 30.696C40.0839 30.696 42.0199 29.624 43.6519 27.48C45.2839 25.336 46.0999 22.92 46.0999 20.232C46.0999 17.544 45.5879 15.448 44.5639 13.944C43.5399 12.408 42.0679 11.64 40.1479 11.64C38.2599 11.64 36.6439 12.232 35.2999 13.416Z" fill="#53BDEB"/>
<path d="M69.4721 14.04C69.4721 13.24 69.2161 12.632 68.7041 12.216C68.2241 11.768 67.5841 11.544 66.7841 11.544C65.0561 11.544 63.2641 12.344 61.4081 13.944C59.5521 15.512 58.4001 17.624 57.9521 20.28C60.9281 20.28 63.5841 19.688 65.9201 18.504C68.2881 17.32 69.4721 15.832 69.4721 14.04ZM53.8721 23.064C53.8721 20.728 54.3041 18.6 55.1681 16.68C56.0321 14.76 57.1201 13.24 58.4321 12.12C61.1841 9.816 64.0321 8.664 66.9761 8.664C68.7361 8.664 70.1761 9.096 71.2961 9.96C72.4161 10.792 72.9761 11.992 72.9761 13.56C72.9761 16.376 71.5041 18.68 68.5601 20.472C65.6481 22.232 62.0481 23.112 57.7601 23.112C57.7601 25.512 58.3201 27.384 59.4401 28.728C60.5601 30.04 62.1761 30.696 64.2881 30.696C65.2801 30.696 66.2401 30.488 67.1681 30.072C68.0961 29.656 68.8321 29.224 69.3761 28.776L70.1921 28.152C70.5441 28.152 70.8481 28.392 71.1041 28.872C71.3601 29.352 71.4881 29.832 71.4881 30.312C71.4881 30.888 70.6401 31.592 68.9441 32.424C67.2801 33.256 65.6641 33.672 64.0961 33.672C60.7681 33.672 58.2241 32.76 56.4641 30.936C54.7361 29.08 53.8721 26.456 53.8721 23.064ZM79.0691 27.096C79.0691 28.056 79.3891 28.872 80.0291 29.544C80.7011 30.184 81.5811 30.504 82.6691 30.504C84.6531 30.504 86.3331 29.512 87.7091 27.528C89.0851 25.512 89.9811 23.24 90.3971 20.712C86.3011 21.032 83.3891 21.736 81.6611 22.824C79.9331 23.912 79.0691 25.336 79.0691 27.096ZM94.9571 14.184C94.9571 15.048 94.6531 17.192 94.0451 20.616C93.4691 24.008 93.1811 26.344 93.1811 27.624C93.1811 28.904 93.2611 29.96 93.4211 30.792C93.6131 31.624 93.7091 32.136 93.7091 32.328C93.7091 32.712 93.3891 33.032 92.7491 33.288C92.1091 33.544 91.5011 33.672 90.9251 33.672C90.2211 33.672 89.8691 32.232 89.8691 29.352V28.104C88.9411 29.928 87.7091 31.32 86.1731 32.28C84.6371 33.208 83.0211 33.672 81.3251 33.672C79.6291 33.672 78.1891 33.16 77.0051 32.136C75.8531 31.112 75.2771 29.672 75.2771 27.816C75.2771 25.16 76.4931 22.92 78.9251 21.096C81.3891 19.272 85.4211 18.184 91.0211 17.832C91.1811 16.872 91.2611 15.88 91.2611 14.856C91.2611 12.872 89.7891 11.88 86.8451 11.88C85.3731 11.88 83.8691 12.184 82.3331 12.792C80.8291 13.4 80.0451 13.704 79.9811 13.704C79.5651 13.704 79.2291 13.464 78.9731 12.984C78.7171 12.472 78.5891 11.944 78.5891 11.4C78.5891 10.856 79.5811 10.264 81.5651 9.624C83.5491 8.984 85.5171 8.664 87.4691 8.664C89.4211 8.664 91.1491 9.112 92.6531 10.008C94.1891 10.872 94.9571 12.264 94.9571 14.184ZM102.204 9.336H105.036L105.9 1.944C105.964 1.464 106.268 1.08 106.812 0.792C107.356 0.504 107.884 0.36 108.396 0.36C108.908 0.36 109.228 0.391999 109.356 0.455998C109.484 0.519998 109.548 0.679997 109.548 0.935998L108.54 9.336H113.004C113.74 9.336 114.108 9.816 114.108 10.776C114.108 11.192 113.964 11.592 113.676 11.976C113.388 12.36 113.052 12.552 112.668 12.552H108.108L106.86 23.064C106.7 24.344 106.62 25.592 106.62 26.808C106.62 28.024 106.748 29.208 107.004 30.36C107.292 31.512 107.436 32.168 107.436 32.328C107.436 32.712 107.132 33.032 106.524 33.288C105.948 33.544 105.388 33.672 104.844 33.672C104.332 33.672 103.9 33.048 103.548 31.8C103.228 30.52 103.068 29.208 103.068 27.864C103.068 26.488 103.164 24.888 103.356 23.064L104.604 12.552H101.868C101.164 12.552 100.812 12.088 100.812 11.16C100.812 10.712 100.94 10.296 101.196 9.912C101.484 9.528 101.82 9.336 102.204 9.336Z" fill="#06CF90"/>
</svg>
